<svg version="1.1" id="Layer_1" xmlns="http://www.w3.org/2000/svg" xmlns:xlink="http://www.w3.org/1999/xlink" x="0px" y="0px"
	 width="100%" viewBox="0 0 314 192" enable-background="new 0 0 314 192" xml:space="preserve">
<path fill="#010101" opacity="1.000000" stroke="none" 
	d="
M232.000000,193.000000 
	C154.666672,193.000000 77.833351,193.000000 1.000021,193.000000 
	C1.000014,129.000015 1.000014,65.000031 1.000007,1.000038 
	C105.666634,1.000025 210.333267,1.000025 314.999939,1.000013 
	C314.999939,64.999962 314.999939,128.999924 314.999969,192.999939 
	C287.500000,193.000000 260.000000,193.000000 232.000000,193.000000 
M237.866882,147.944778 
	C235.948532,148.230133 234.030624,148.518570 232.111740,148.800293 
	C223.220276,150.105804 213.892715,150.153091 205.552216,153.046265 
	C196.096024,156.326447 187.594803,162.297134 178.540710,166.822632 
	C173.165924,169.509109 171.244659,173.887833 170.450043,180.288773 
	C172.919037,179.050476 174.578064,178.138428 176.303009,177.375381 
	C178.078918,176.589783 180.080948,176.211090 181.706467,175.205612 
	C200.590347,163.524857 221.548843,157.927811 243.093735,153.925323 
	C245.458191,153.486053 247.634705,152.035065 250.045700,150.114059 
	C250.031586,112.721916 250.030945,75.329750 249.957123,37.937717 
	C249.953979,36.344509 249.273392,34.752632 248.102951,33.036045 
	C245.419250,33.384300 242.735550,33.732552 239.466187,33.802437 
	C239.311356,35.432812 239.022629,37.063087 239.021408,38.693573 
	C238.995346,73.270721 239.006271,107.847908 238.988419,142.425079 
	C238.987488,144.243179 238.795746,146.061203 237.866882,147.944778 
M70.623329,152.905273 
	C98.078423,157.740768 124.344086,165.952393 148.724960,180.617233 
	C147.705719,176.525482 146.807968,172.220917 144.161118,170.017059 
	C138.484818,165.290802 132.238342,160.969589 125.616127,157.726456 
	C116.306267,153.167084 106.218132,150.703873 95.765091,149.953430 
	C90.449150,149.571808 85.166466,148.726959 79.996826,147.141113 
	C79.997002,111.115761 80.009956,75.090385 79.955940,39.065117 
	C79.953491,37.430717 79.346260,35.797230 78.158546,34.030540 
	C75.203819,33.734066 72.249092,33.437592 69.090446,33.120659 
	C69.090446,35.735207 69.090446,37.834297 68.979744,40.878868 
	C69.017059,63.607433 69.054375,86.335999 68.937119,109.947731 
	C68.979630,112.931129 69.022133,115.914520 68.919106,119.846016 
	C68.947983,129.047104 68.928917,138.248810 69.048950,147.448700 
	C69.071121,149.148712 69.655365,150.841400 70.623329,152.905273 
M127.490471,30.850670 
	C113.848282,24.546253 99.080772,25.478193 83.923759,23.880083 
	C83.923759,26.117767 83.923759,28.051901 83.923759,29.986034 
	C83.923767,64.139267 83.923752,98.292503 83.923790,132.445740 
	C83.923798,143.083374 83.908195,143.406204 94.216713,143.906357 
	C112.812248,144.808578 129.613159,149.935684 143.567093,162.855804 
	C146.493896,165.565765 149.945709,167.708710 154.324463,170.988434 
	C154.324463,161.078873 154.294022,152.632233 154.330017,144.185913 
	C154.452011,115.563095 154.691589,86.940041 154.586395,58.318176 
	C154.576050,55.501095 153.270203,51.842876 151.256058,50.030453 
	C143.871155,43.385178 135.932999,37.354748 127.490471,30.850670 
M174.194702,163.707397 
	C183.958450,156.580460 193.239456,148.493866 205.770782,146.547409 
	C213.920715,145.281509 222.100586,144.011444 230.315521,143.439819 
	C234.754089,143.130981 235.253189,141.255081 235.241379,137.519958 
	C235.127075,101.370712 235.175797,65.220963 235.164108,29.071360 
	C235.163574,27.448082 235.030075,25.824850 234.943359,23.857544 
	C227.968674,24.359072 221.395370,24.755239 214.836594,25.320131 
	C203.106400,26.330423 192.156433,29.085405 182.477844,36.607716 
	C165.125412,50.094212 164.930038,49.842831 164.930023,71.395950 
	C164.930023,71.729126 164.930008,72.062309 164.929977,72.395485 
	C164.927933,102.714508 164.919357,133.033524 164.937698,163.352539 
	C164.939011,165.516449 165.137589,167.680237 165.287506,170.716064 
	C168.743240,167.999512 171.188705,166.077148 174.194702,163.707397 
M105.924599,164.507629 
	C94.110367,159.572403 81.589958,158.116089 68.992798,157.259521 
	C65.264748,157.006058 63.745090,155.942108 63.876896,151.921143 
	C64.171463,142.934784 63.968555,133.932114 63.968506,124.936096 
	C63.968361,99.280769 63.957581,73.625435 63.983669,47.970135 
	C63.986500,45.189247 64.149567,42.624397 60.273319,42.197586 
	C55.846191,41.710114 55.006065,43.806141 55.018276,47.721710 
	C55.126347,82.372719 55.080910,117.024208 55.080833,151.675552 
	C55.080814,162.225571 55.080856,162.225296 65.713165,163.036438 
	C66.210678,163.074402 66.706688,163.132599 67.204353,163.167969 
	C85.239990,164.450378 101.628059,171.521820 118.291489,177.653244 
	C124.212708,179.832001 130.223007,181.768677 136.192642,183.815857 
	C136.551895,183.207245 136.911133,182.598633 137.270386,181.990036 
	C133.468292,179.047684 129.970673,175.537415 125.792130,173.297226 
	C119.656471,170.007782 113.034126,167.626114 105.924599,164.507629 
M255.081680,107.500000 
	C255.081421,122.329201 254.970383,137.159821 255.160187,151.986603 
	C255.206619,155.613052 254.128067,157.101074 250.457886,157.190872 
	C228.677231,157.723923 208.737671,164.677032 189.917984,175.146042 
	C187.134842,176.694229 185.059113,179.514069 182.656082,181.745544 
	C182.948105,182.140457 183.240112,182.535355 183.532135,182.930267 
	C184.626556,182.788269 185.783539,182.827591 186.805374,182.475128 
	C194.035446,179.981415 201.337585,177.655823 208.428864,174.808701 
	C224.717987,168.268677 241.266556,162.986176 259.054535,163.013000 
	C263.009308,163.018967 264.058472,161.183182 264.034821,157.436920 
	C263.897064,135.610504 263.967834,113.782768 263.967743,91.955482 
	C263.967712,76.959633 263.865448,61.962620 264.036926,46.968739 
	C264.080719,43.141441 262.603760,42.084827 259.032288,42.134991 
	C254.985962,42.191822 255.063843,44.686054 255.067780,47.516346 
	C255.095078,67.177536 255.082001,86.838776 255.081680,107.500000 
z"/>
<path fill="#BFD8F1" opacity="1.000000" stroke="none" 
	d="
M127.846802,30.971756 
	C135.932999,37.354748 143.871155,43.385178 151.256058,50.030453 
	C153.270203,51.842876 154.576050,55.501095 154.586395,58.318176 
	C154.691589,86.940041 154.452011,115.563095 154.330017,144.185913 
	C154.294022,152.632233 154.324463,161.078873 154.324463,170.988434 
	C149.945709,167.708710 146.493896,165.565765 143.567093,162.855804 
	C129.613159,149.935684 112.812248,144.808578 94.216713,143.906357 
	C83.908195,143.406204 83.923798,143.083374 83.923790,132.445740 
	C83.923752,98.292503 83.923767,64.139267 83.923759,29.986034 
	C83.923759,28.051901 83.923759,26.117767 83.923759,23.880083 
	C99.080772,25.478193 113.848282,24.546253 127.846802,30.971756 
z"/>
<path fill="#BFD8F1" opacity="1.000000" stroke="none" 
	d="
M173.914444,163.931091 
	C171.188705,166.077148 168.743240,167.999512 165.287506,170.716064 
	C165.137589,167.680237 164.939011,165.516449 164.937698,163.352539 
	C164.919357,133.033524 164.927933,102.714508 164.929977,72.395485 
	C164.930008,72.062309 164.930023,71.729126 164.930023,71.395950 
	C164.930038,49.842831 165.125412,50.094212 182.477844,36.607716 
	C192.156433,29.085405 203.106400,26.330423 214.836594,25.320131 
	C221.395370,24.755239 227.968674,24.359072 234.943359,23.857544 
	C235.030075,25.824850 235.163574,27.448082 235.164108,29.071360 
	C235.175797,65.220963 235.127075,101.370712 235.241379,137.519958 
	C235.253189,141.255081 234.754089,143.130981 230.315521,143.439819 
	C222.100586,144.011444 213.920715,145.281509 205.770782,146.547409 
	C193.239456,148.493866 183.958450,156.580460 173.914444,163.931091 
z"/>
<path fill="#0E6CDB" opacity="1.000000" stroke="none" 
	d="
M79.868744,148.091492 
	C85.166466,148.726959 90.449150,149.571808 95.765091,149.953430 
	C106.218132,150.703873 116.306267,153.167084 125.616127,157.726456 
	C132.238342,160.969589 138.484818,165.290802 144.161118,170.017059 
	C146.807968,172.220917 147.705719,176.525482 148.724960,180.617233 
	C124.344086,165.952393 98.078423,157.740768 70.318710,152.212158 
	C70.006767,143.718033 70.084023,135.915573 69.950127,128.116730 
	C69.897293,125.039635 69.373802,121.970619 69.064636,118.897919 
	C69.022133,115.914520 68.979630,112.931129 69.271530,109.172440 
	C69.732925,107.583611 69.969925,106.770203 69.970802,105.956535 
	C69.993233,85.201569 70.006607,64.446526 69.954369,43.691666 
	C69.951210,42.438190 69.391296,41.186115 69.090446,39.933388 
	C69.090446,37.834297 69.090446,35.735207 69.090446,33.120659 
	C72.249092,33.437592 75.203819,33.734066 78.584435,34.554741 
	C79.008789,70.830063 78.993919,106.581200 79.042503,142.332260 
	C79.045113,144.252365 79.581070,146.171768 79.868744,148.091492 
z"/>
<path fill="#0E6CDC" opacity="1.000000" stroke="none" 
	d="
M240.051849,34.080807 
	C242.735550,33.732552 245.419250,33.384300 248.532959,33.555450 
	C248.976730,70.979645 248.975998,107.884460 249.042313,144.789169 
	C249.046066,146.877716 249.600327,148.965302 249.898376,151.053329 
	C247.634705,152.035065 245.458191,153.486053 243.093735,153.925323 
	C221.548843,157.927811 200.590347,163.524857 181.706467,175.205612 
	C180.080948,176.211090 178.078918,176.589783 176.303009,177.375381 
	C174.578064,178.138428 172.919037,179.050476 170.450043,180.288773 
	C171.244659,173.887833 173.165924,169.509109 178.540710,166.822632 
	C187.594803,162.297134 196.096024,156.326447 205.552216,153.046265 
	C213.892715,150.153091 223.220276,150.105804 232.111740,148.800293 
	C234.030624,148.518570 235.948532,148.230133 238.644043,147.701157 
	C239.615021,145.326630 239.974884,143.195984 239.977936,141.064804 
	C240.029007,105.403503 240.035461,69.742149 240.051849,34.080807 
z"/>
<path fill="#00007A" opacity="1.000000" stroke="none" 
	d="
M106.271866,164.682648 
	C113.034126,167.626114 119.656471,170.007782 125.792130,173.297226 
	C129.970673,175.537415 133.468292,179.047684 137.270386,181.990036 
	C136.911133,182.598633 136.551895,183.207245 136.192642,183.815857 
	C130.223007,181.768677 124.212708,179.832001 118.291489,177.653244 
	C101.628059,171.521820 85.239990,164.450378 67.204353,163.167969 
	C66.706688,163.132599 66.210678,163.074402 65.713165,163.036438 
	C55.080856,162.225296 55.080814,162.225571 55.080833,151.675552 
	C55.080910,117.024208 55.126347,82.372719 55.018276,47.721710 
	C55.006065,43.806141 55.846191,41.710114 60.273319,42.197586 
	C64.149567,42.624397 63.986500,45.189247 63.983669,47.970135 
	C63.957581,73.625435 63.968361,99.280769 63.968506,124.936096 
	C63.968555,133.932114 64.171463,142.934784 63.876896,151.921143 
	C63.745090,155.942108 65.264748,157.006058 68.992798,157.259521 
	C81.589958,158.116089 94.110367,159.572403 106.271866,164.682648 
z"/>
<path fill="#00007A" opacity="1.000000" stroke="none" 
	d="
M255.081787,107.000000 
	C255.082001,86.838776 255.095078,67.177536 255.067780,47.516346 
	C255.063843,44.686054 254.985962,42.191822 259.032288,42.134991 
	C262.603760,42.084827 264.080719,43.141441 264.036926,46.968739 
	C263.865448,61.962620 263.967712,76.959633 263.967743,91.955482 
	C263.967834,113.782768 263.897064,135.610504 264.034821,157.436920 
	C264.058472,161.183182 263.009308,163.018967 259.054535,163.013000 
	C241.266556,162.986176 224.717987,168.268677 208.428864,174.808701 
	C201.337585,177.655823 194.035446,179.981415 186.805374,182.475128 
	C185.783539,182.827591 184.626556,182.788269 183.532135,182.930267 
	C183.240112,182.535355 182.948105,182.140457 182.656082,181.745544 
	C185.059113,179.514069 187.134842,176.694229 189.917984,175.146042 
	C208.737671,164.677032 228.677231,157.723923 250.457886,157.190872 
	C254.128067,157.101074 255.206619,155.613052 255.160187,151.986603 
	C254.970383,137.159821 255.081421,122.329201 255.081787,107.000000 
z"/>
<path fill="#478AD9" opacity="1.000000" stroke="none" 
	d="
M249.972031,150.583694 
	C249.600327,148.965302 249.046066,146.877716 249.042313,144.789169 
	C248.975998,107.884460 248.976730,70.979645 248.935669,33.617496 
	C249.273392,34.752632 249.953979,36.344509 249.957123,37.937717 
	C250.030945,75.329750 250.031586,112.721916 249.972031,150.583694 
z"/>
<path fill="#6386AC" opacity="1.000000" stroke="none" 
	d="
M239.759018,33.941620 
	C240.035461,69.742149 240.029007,105.403503 239.977936,141.064804 
	C239.974884,143.195984 239.615021,145.326630 239.057007,147.668396 
	C238.795746,146.061203 238.987488,144.243179 238.988419,142.425079 
	C239.006271,107.847908 238.995346,73.270721 239.021408,38.693573 
	C239.022629,37.063087 239.311356,35.432812 239.759018,33.941620 
z"/>
<path fill="#78ABE6" opacity="1.000000" stroke="none" 
	d="
M79.932785,147.616302 
	C79.581070,146.171768 79.045113,144.252365 79.042503,142.332260 
	C78.993919,106.581200 79.008789,70.830063 79.015518,34.621132 
	C79.346260,35.797230 79.953491,37.430717 79.955940,39.065117 
	C80.009956,75.090385 79.997002,111.115761 79.932785,147.616302 
z"/>
<path fill="#4E81BF" opacity="1.000000" stroke="none" 
	d="
M69.035095,40.406128 
	C69.391296,41.186115 69.951210,42.438190 69.954369,43.691666 
	C70.006607,64.446526 69.993233,85.201569 69.970802,105.956535 
	C69.969925,106.770203 69.732925,107.583611 69.348816,108.730850 
	C69.054375,86.335999 69.017059,63.607433 69.035095,40.406128 
z"/>
<path fill="#4F82C0" opacity="1.000000" stroke="none" 
	d="
M68.991867,119.371964 
	C69.373802,121.970619 69.897293,125.039635 69.950127,128.116730 
	C70.084023,135.915573 70.006767,143.718033 69.997131,152.028259 
	C69.655365,150.841400 69.071121,149.148712 69.048950,147.448700 
	C68.928917,138.248810 68.947983,129.047104 68.991867,119.371964 
z"/>
</svg>